<svg xmlns="http://www.w3.org/2000/svg" viewBox="0 0 140 140" role="img" aria-label="团子">
  <path d="M32 64 Q24 24 62 42 Z" fill="#FFF4E3" stroke="#EED9BC" stroke-width="3" stroke-linejoin="round"/>
  <path d="M108 64 Q116 24 78 42 Z" fill="#FFF4E3" stroke="#EED9BC" stroke-width="3" stroke-linejoin="round"/>
  <path d="M38 58 Q34 36 54 46 Z" fill="#FFD9CC"/>
  <path d="M102 58 Q106 36 86 46 Z" fill="#FFD9CC"/>
  <ellipse cx="70" cy="92" rx="52" ry="44" fill="#FFF4E3" stroke="#EED9BC" stroke-width="3"/>
  <g stroke="#E3C9A8" stroke-width="2" stroke-linecap="round">
    <path d="M12 88 L28 90"/><path d="M13 98 L28 96"/><path d="M128 88 L112 90"/><path d="M127 98 L112 96"/>
  </g>
  <g fill="#4A3B32">
    <circle cx="52" cy="88" r="5"/><circle cx="88" cy="88" r="5"/>
    <g fill="#FFF" opacity=".9"><circle cx="50.2" cy="86.2" r="1.6"/><circle cx="86.2" cy="86.2" r="1.6"/></g>
  </g>
  <path d="M64 100 q3 3 6 0 q3 3 6 0" stroke="#4A3B32" stroke-width="2.4" stroke-linecap="round" fill="none"/>
  <ellipse cx="40" cy="101" rx="7" ry="4.5" fill="#FFC9B8" opacity=".8"/>
  <ellipse cx="100" cy="101" rx="7" ry="4.5" fill="#FFC9B8" opacity=".8"/>
</svg>
