<svg xmlns="http://www.w3.org/2000/svg" viewBox="0 0 140 140" width="140" height="140" role="img" aria-label="软软团 sleepy">
  <ellipse cx="70" cy="118" rx="34" ry="8" fill="#000000" opacity="0.06"/>
  <path d="M28 92 C28 56 46 38 70 38 C94 38 112 56 112 92 C112 108 104 118 96 113 C91 122 79 122 74 115 C72 118 68 118 66 115 C61 122 49 122 44 113 C36 118 28 108 28 92 Z"
        fill="#7AA7FF" stroke="#5E8BE6" stroke-width="3" stroke-linejoin="round"/>
  <ellipse cx="54" cy="60" rx="12" ry="7" fill="#A6C4FF" opacity="0.7" transform="rotate(-18 54 60)"/>
  <g stroke="#26324D" stroke-width="3" stroke-linecap="round" fill="none">
    <path d="M49 88 q7 5 14 0"/>
    <path d="M77 88 q7 5 14 0"/>
  </g>
  <path d="M67 99 q3 3 6 0" stroke="#26324D" stroke-width="2.4" stroke-linecap="round" fill="none"/>
  <ellipse cx="44" cy="97" rx="6.5" ry="4" fill="#FFB3C1" opacity="0.7"/>
  <ellipse cx="96" cy="97" rx="6.5" ry="4" fill="#FFB3C1" opacity="0.7"/>
  <text x="99" y="52" font-family="sans-serif" font-size="15" fill="#5E8BE6" opacity="0.8">z</text>
  <text x="108" y="42" font-family="sans-serif" font-size="11" fill="#5E8BE6" opacity="0.6">z</text>
</svg>
